<svg xmlns="http://www.w3.org/2000/svg" width="12" height="12" viewBox="0 0 12 12" fill="none">
  <g clip-path="url(#clip0_8035_1370)">
    <path d="M6 0C7.59125 0 9.1175 0.632187 10.2427 1.75734C11.368 2.8825 12 4.40859 12 6C12 7.59141 11.3678 9.1175 10.2427 10.2427C9.1175 11.368 7.59141 12 6 12C4.40859 12 2.8825 11.3678 1.75734 10.2427C0.63203 9.1175 0 7.59141 0 6C0 4.94672 0.277187 3.91219 0.803906 3C1.33047 2.08781 2.08797 1.33047 3 0.803906C3.91203 0.277344 4.94656 0 5.99984 0H6ZM6 10.5C7.19344 10.5 8.33812 10.0259 9.18203 9.18203C10.0259 8.33813 10.5 7.19344 10.5 6C10.5 4.80656 10.0259 3.66188 9.18203 2.81797C8.33812 1.97406 7.19344 1.5 6 1.5C4.80656 1.5 3.66187 1.97406 2.81797 2.81797C1.97406 3.66188 1.5 4.80656 1.5 6C1.5 7.19344 1.97406 8.33813 2.81797 9.18203C3.66187 10.0259 4.80656 10.5 6 10.5ZM6 5.625C5.58578 5.625 5.25 5.96078 5.25 6.375V8.25C5.25 8.66422 5.58578 9 6 9C6.41422 9 6.75 8.66422 6.75 8.25V6.375C6.75 5.96078 6.41422 5.625 6 5.625ZM5.25 3.75C5.25 4.16422 5.58578 4.5 6 4.5C6.41422 4.5 6.75 4.16422 6.75 3.75C6.75 3.33578 6.41422 3 6 3C5.58578 3 5.25 3.33578 5.25 3.75Z" fill="#292929"/>
  </g>
  <defs>
    <clipPath id="clip0_8035_1370">
      <rect width="12" height="12" fill="white" transform="matrix(-1 0 0 1 12 0)"/>
    </clipPath>
  </defs>
</svg>