<svg xmlns="http://www.w3.org/2000/svg" width="24" height="20" viewBox="0 0 24 20" fill="none">
  <g clip-path="url(#clip0_8035_1350)">
    <path d="M0.351402 6.5718L2.92835 5.70241C4.23505 5.2599 5.26323 4.23433 5.70313 2.92763L6.57253 0.350679C6.73131 -0.117857 7.39246 -0.117857 7.55125 0.350679L8.42064 2.92763C8.86315 4.23433 9.88872 5.2625 11.1954 5.70241L13.7724 6.5718C14.2409 6.73058 14.2409 7.39174 13.7724 7.55052L11.1954 8.41992C9.88872 8.86242 8.86054 9.888 8.42064 11.1947L7.55125 13.7716C7.39246 14.2402 6.73131 14.2402 6.57253 13.7716L5.70313 11.1947C5.26062 9.888 4.23505 8.85982 2.92835 8.41992L0.351402 7.55052C-0.117134 7.39174 -0.117134 6.73058 0.351402 6.5718Z" fill="#006E9E"/>
    <path d="M19.3201 15.3605C19.2004 15.7119 18.7058 15.7119 18.5861 15.3605L17.9874 13.5878C17.7792 12.9735 17.2976 12.4894 16.6807 12.2811L14.9081 11.6825C14.5567 11.5627 14.5567 11.0682 14.9081 10.9484L16.6807 10.3497C17.295 10.1415 17.7792 9.65994 17.9874 9.04304L18.5861 7.27041C18.7058 6.91901 19.2004 6.91901 19.3201 7.27041L19.9188 9.04304C20.1271 9.65734 20.6086 10.1415 21.2255 10.3497L22.9981 10.9484C23.3495 11.0682 23.3495 11.5627 22.9981 11.6825L21.2255 12.2811C20.6112 12.4894 20.1271 12.9709 19.9188 13.5878L19.3201 15.3605Z" fill="#006E9E"/>
    <path d="M15.1173 17.4322L13.8184 17.8721C13.5113 17.9762 13.2692 18.2183 13.1651 18.5254L12.7252 19.8243C12.6471 20.0586 12.3139 20.0586 12.2358 19.8243L11.7959 18.5254C11.6918 18.2183 11.4497 17.9762 11.1426 17.8721L9.84367 17.4322C9.6094 17.3541 9.6094 17.0209 9.84367 16.9428L11.1426 16.5029C11.4497 16.3988 11.6918 16.1567 11.7959 15.8495L12.2358 14.5507C12.3139 14.3164 12.6471 14.3164 12.7252 14.5507L13.1651 15.8495C13.2692 16.1567 13.5113 16.3988 13.8184 16.5029L15.1173 16.9428C15.3516 17.0209 15.3516 17.3541 15.1173 17.4322Z" fill="#006E9E"/>
  </g>
  <defs>
    <clipPath id="clip0_8035_1350">
      <rect width="23.2635" height="20" fill="white" transform="matrix(1 0 0 -1 0 20)"/>
    </clipPath>
  </defs>
</svg>