<svg width="274" height="60" viewBox="0 0 274 60" fill="none" xmlns="http://www.w3.org/2000/svg">
<g clip-path="url(#clip0_33_1980)">
<path d="M173.807 45.2641V40.0674C175.233 40.9574 176.597 41.8107 177.97 42.6674C177.92 42.7741 177.83 42.8007 177.76 42.8441C176.537 43.5941 175.313 44.3407 174.09 45.0907C174.01 45.1407 173.907 45.1641 173.863 45.2641H173.81H173.807Z" fill="#346DB2"/>
<path d="M97.6301 32.1133C97.9367 32.1933 98.2401 32.26 98.5301 32.38C99.5034 32.7933 99.8701 33.4367 99.8934 34.57C99.9001 34.8633 99.8534 35.16 99.7767 35.4467C99.5501 36.3267 98.9201 36.7733 98.0967 37.0133C97.4867 37.19 96.8634 37.2533 96.2334 37.2533C93.2401 37.26 90.2467 37.2533 87.2534 37.2533H87.0801V27.6867C87.1701 27.6333 87.2701 27.66 87.3667 27.66C90.0901 27.66 92.8134 27.6533 95.5367 27.66C96.3101 27.66 97.0801 27.7333 97.7834 28.1067C99.0467 28.7767 99.3201 30.6967 98.2934 31.68C98.1034 31.8633 97.8767 31.9867 97.6334 32.1L97.6301 32.1133ZM89.0334 35.55C89.0834 35.5567 89.1167 35.5633 89.1534 35.5633C91.4634 35.5633 93.7734 35.5667 96.0834 35.5633C96.4701 35.5633 96.8567 35.5067 97.2101 35.34C97.6401 35.14 97.8267 34.7867 97.8101 34.32C97.7967 33.8733 97.5567 33.5867 97.1601 33.42C96.8834 33.3033 96.5867 33.2633 96.2901 33.2633C93.9001 33.2533 91.5067 33.2533 89.1167 33.25C89.0934 33.25 89.0667 33.26 89.0334 33.27V35.5533V35.55ZM89.0367 31.5333C89.1101 31.54 89.1701 31.5467 89.2334 31.55C91.2901 31.55 93.3467 31.55 95.4001 31.55C95.6167 31.55 95.8301 31.5233 96.0401 31.47C96.5467 31.3367 96.7801 31.0467 96.8067 30.5067C96.8301 30.0533 96.5767 29.6867 96.1267 29.5233C95.8101 29.4067 95.4801 29.38 95.1467 29.38C93.2067 29.38 91.2667 29.38 89.3301 29.38C89.2334 29.38 89.1334 29.35 89.0367 29.4133V31.5367V31.5333Z" fill="#040404"/>
<path d="M153.347 27.6908V29.4575H144.113V31.5442H153.143V33.2908H144.113V35.4442H153.457V37.2408H142.117V27.6875H153.35L153.347 27.6908Z" fill="#040404"/>
<path d="M129.35 18.2305H127.11C126.866 17.3238 126.11 17.1038 125.333 16.9971C123.546 16.7505 121.753 16.7471 119.966 17.0338C119.716 17.0738 119.48 17.1571 119.26 17.2838C118.996 17.4371 118.856 17.6571 118.876 17.9705C118.896 18.2638 119.086 18.4171 119.333 18.5138C119.943 18.7471 120.593 18.7971 121.233 18.8638C122.903 19.0338 124.583 19.0871 126.25 19.3005C126.973 19.3938 127.673 19.5671 128.346 19.8638C130.126 20.6571 129.903 22.9705 128.766 23.8305C128.05 24.3738 127.23 24.6505 126.363 24.7771C124.106 25.1038 121.85 25.0771 119.61 24.6271C118.656 24.4371 117.803 24.0338 117.193 23.2271C116.846 22.7671 116.65 22.2471 116.586 21.6538H118.763C118.763 21.6538 118.796 21.6838 118.8 21.7071C118.943 22.4771 119.496 22.7905 120.183 22.9571C120.956 23.1471 121.746 23.1871 122.536 23.2071C123.786 23.2405 125.033 23.2538 126.27 23.0105C126.57 22.9505 126.863 22.8605 127.123 22.6905C127.403 22.5105 127.55 22.2571 127.523 21.9205C127.496 21.5971 127.3 21.4005 127.016 21.2805C126.436 21.0338 125.82 20.9771 125.203 20.9105C123.666 20.7438 122.12 20.7205 120.586 20.5338C119.793 20.4371 119.006 20.2938 118.263 19.9838C117.253 19.5671 116.773 18.8838 116.793 17.8905C116.81 17.1638 117.196 16.6405 117.76 16.2338C118.443 15.7405 119.23 15.4838 120.046 15.3371C122.073 14.9738 124.103 14.9438 126.116 15.4205C127.016 15.6338 127.85 16.0038 128.516 16.6805C128.936 17.1105 129.206 17.5938 129.35 18.2305Z" fill="#346DB2"/>
<path d="M114.914 19.8004C114.914 22.0304 113.784 23.5904 111.73 24.3604C110.694 24.7471 109.617 24.9071 108.517 24.9571C107.09 25.0204 105.68 24.9304 104.317 24.4671C103.147 24.0704 102.11 23.4671 101.364 22.4504C100.194 20.8604 100.377 18.4338 101.757 17.0238C102.804 15.9538 104.097 15.3771 105.557 15.1704C107.34 14.9171 109.12 14.9271 110.877 15.3671C111.72 15.5771 112.497 15.9404 113.194 16.4704C114.357 17.3504 114.954 18.5004 114.917 19.8038L114.914 19.8004ZM107.787 23.2171C108.317 23.2238 108.847 23.1871 109.37 23.1104C110.387 22.9638 111.31 22.6171 112.074 21.8971C113.194 20.8404 113.13 18.9338 111.94 17.9671C111.467 17.5838 110.937 17.3038 110.354 17.1371C108.91 16.7238 107.447 16.7171 105.98 16.9538C105.167 17.0838 104.39 17.3338 103.727 17.8438C102.394 18.8738 102.27 20.8171 103.467 21.8871C103.81 22.1938 104.194 22.4404 104.61 22.6338C105.62 23.1038 106.694 23.2038 107.787 23.2138V23.2171Z" fill="#346DB2"/>
<path d="M176.366 30.2036V37.2469H174.413V27.6836H176.56C179.17 30.0169 181.81 32.3769 184.48 34.7636V27.6903H186.386V37.2503H184.313C181.696 34.9303 179.06 32.5936 176.366 30.2069V30.2036Z" fill="#040404"/>
<path d="M89.0701 22.2108V24.8141H87.0801V15.2541C87.1301 15.2508 87.1734 15.2441 87.2167 15.2441C89.9667 15.2441 92.7167 15.2441 95.4667 15.2541C96.0167 15.2541 96.5567 15.3641 97.0801 15.5275C98.0734 15.8341 98.6934 16.4908 98.9434 17.5008C99.1367 18.2808 99.1534 19.0675 98.9701 19.8475C98.7001 21.0008 97.9334 21.6741 96.8167 21.9875C96.2067 22.1575 95.5834 22.2141 94.9501 22.2141C93.1001 22.2141 91.2467 22.2141 89.3967 22.2141H89.0667L89.0701 22.2108ZM89.0834 16.9775V20.3808C89.1501 20.3841 89.1967 20.3908 89.2401 20.3908C91.0634 20.3908 92.8867 20.3941 94.7101 20.3908C95.0134 20.3908 95.3201 20.3575 95.6201 20.3141C96.4767 20.1941 96.9367 19.8008 97.0301 19.1108C97.0701 18.8175 97.0567 18.5208 97.0201 18.2275C96.9567 17.7275 96.6701 17.4208 96.2234 17.2341C95.8101 17.0641 95.3767 16.9841 94.9367 16.9808C93.0334 16.9675 91.1301 16.9708 89.2267 16.9675C89.1834 16.9675 89.1401 16.9741 89.0867 16.9775H89.0834Z" fill="#346DB2"/>
<path d="M112.504 27.6836H114.52V27.9569C114.52 29.6803 114.527 31.4036 114.52 33.1269C114.517 34.0769 114.277 34.9536 113.63 35.6836C113 36.3903 112.194 36.8069 111.287 37.0303C109.19 37.5503 107.09 37.5803 105.024 36.8936C103.817 36.4903 102.884 35.7403 102.407 34.5136C102.22 34.0336 102.127 33.5303 102.124 33.0169C102.117 31.2836 102.124 29.5503 102.124 27.8203C102.124 27.7769 102.13 27.7336 102.137 27.6836H104.11C104.18 27.7736 104.147 27.8769 104.147 27.9703C104.147 29.5869 104.17 31.2036 104.14 32.8169C104.12 34.0003 104.64 34.8203 105.724 35.2103C107.524 35.8603 109.35 35.9003 111.13 35.1303C112.06 34.7269 112.527 33.9803 112.514 32.9336C112.494 31.2903 112.507 29.6469 112.507 28.0036C112.507 27.9069 112.507 27.8069 112.507 27.6836H112.504Z" fill="#040404"/>
<path d="M167.167 27.6836V29.4669H161.814V37.2436H159.784V29.4836H154.394V27.6836H167.167Z" fill="#040404"/>
<path d="M130.56 17.0402V15.2568H143.323V17.0302H137.99V24.8168H135.95V17.0402H130.56Z" fill="#346DB2"/>
<path d="M117.8 37.2442V27.6875H119.79V35.4475H127.856V37.2442H117.8Z" fill="#040404"/>
<path d="M139.88 35.454V37.244H129.803V27.6807H131.8V35.454H139.88Z" fill="#040404"/>
<path d="M168.963 27.6768H170.987V37.2468H168.963V27.6768Z" fill="#040404"/>
<path d="M182.503 42.6907C181.097 43.5507 179.73 44.384 178.33 45.2373V40.084C179.737 40.964 181.1 41.814 182.503 42.6907Z" fill="#346DB2"/>
<path d="M182.823 40.0801C184.237 40.9634 185.6 41.8134 187 42.6867C185.597 43.5434 184.227 44.3801 182.823 45.2401V40.0801Z" fill="#346DB2"/>
<path d="M113.45 42.5603C113.536 42.587 113.596 42.607 113.656 42.6237C114.06 42.747 114.29 43.0236 114.313 43.4136C114.34 43.9136 114.156 44.237 113.746 44.4103C113.476 44.5237 113.19 44.5503 112.903 44.5537C111.87 44.5603 110.84 44.5537 109.806 44.5537C109.773 44.5537 109.736 44.547 109.683 44.5403V40.8436C109.776 40.7936 109.866 40.8103 109.956 40.8137C110.943 40.827 111.93 40.7736 112.916 40.8436C113.646 40.897 114.013 41.4037 113.83 42.077C113.773 42.2837 113.646 42.4336 113.45 42.5603ZM110.11 44.1336C111.136 44.1336 112.133 44.1336 113.13 44.1336C113.216 44.1336 113.306 44.1103 113.393 44.087C113.713 43.9937 113.863 43.7836 113.856 43.4503C113.85 43.167 113.673 42.967 113.36 42.9003C113.213 42.8703 113.056 42.8503 112.906 42.8503C112.053 42.847 111.2 42.8503 110.346 42.8503C110.27 42.8503 110.183 42.827 110.106 42.8903V44.137L110.11 44.1336ZM110.106 42.4503C111.033 42.4503 111.93 42.457 112.826 42.447C113.136 42.4436 113.34 42.257 113.393 42.0003C113.453 41.7036 113.356 41.4536 113.12 41.3303C112.973 41.2536 112.816 41.2236 112.653 41.2236C111.853 41.2236 111.056 41.2236 110.256 41.2236C110.203 41.2236 110.146 41.2103 110.11 41.2636V42.4503H110.106Z" fill="#346DB2"/>
<path d="M164.96 41.4941V44.5175C164.827 44.5741 164.697 44.5541 164.553 44.5341V40.8375C164.737 40.7875 164.917 40.8141 165.113 40.8175C165.81 41.9041 166.507 42.9975 167.23 44.1241C167.953 43.0041 168.653 41.9208 169.353 40.8341C169.543 40.7975 169.727 40.7975 169.923 40.8341V44.5241C169.79 44.5708 169.667 44.5541 169.51 44.5375V41.5208C169.49 41.5141 169.47 41.5108 169.45 41.5041C168.793 42.5141 168.137 43.5275 167.473 44.5441H166.97C166.32 43.5275 165.663 42.5008 165.01 41.4775C164.993 41.4841 164.977 41.4908 164.96 41.4975V41.4941Z" fill="#346DB2"/>
<path d="M131.34 40.8242H135.527C135.577 40.9509 135.55 41.0709 135.547 41.2242H131.763V42.4542H135.447C135.47 42.6042 135.48 42.7242 135.437 42.8676H131.76V44.1242H135.567C135.61 44.2776 135.593 44.3976 135.583 44.5376H131.34V40.8242Z" fill="#346DB2"/>
<path d="M103.21 41.8905H102.734C102.43 41.3405 101.887 41.2605 101.334 41.1972C100.787 41.1339 100.24 41.1539 99.7002 41.2705C99.5802 41.2972 99.4569 41.3405 99.3469 41.3972C99.1769 41.4839 99.0502 41.6172 99.0669 41.8172C99.0836 42.0072 99.2269 42.1139 99.3936 42.1739C99.7336 42.3005 100.094 42.3239 100.45 42.3505C101.084 42.4005 101.724 42.4039 102.347 42.5639C102.494 42.6005 102.64 42.6505 102.777 42.7139C103.094 42.8605 103.294 43.0972 103.3 43.4605C103.304 43.8372 103.127 44.1105 102.797 44.2872C102.33 44.5372 101.82 44.5739 101.307 44.5939C100.624 44.6205 99.9402 44.6005 99.2936 44.3372C98.8636 44.1605 98.5702 43.8639 98.4902 43.3705C98.6502 43.3272 98.7902 43.3372 98.9436 43.3572C99.0702 43.8372 99.4402 44.0172 99.8736 44.0972C100.64 44.2372 101.41 44.2439 102.174 44.0839C102.287 44.0605 102.4 44.0205 102.5 43.9672C102.694 43.8705 102.834 43.7305 102.827 43.4872C102.82 43.2572 102.68 43.1272 102.49 43.0405C102.014 42.8239 101.494 42.8239 100.987 42.7839C100.487 42.7439 99.9836 42.7305 99.4902 42.6172C99.3336 42.5805 99.1769 42.5305 99.0369 42.4572C98.5336 42.2072 98.4569 41.6539 98.8536 41.2539C99.0436 41.0639 99.2836 40.9605 99.5369 40.8972C100.38 40.6972 101.23 40.6872 102.067 40.9105C102.577 41.0472 103.007 41.3039 103.204 41.8839L103.21 41.8905Z" fill="#346DB2"/>
<path d="M94.8898 40.7402C95.4931 40.7636 96.0798 40.8236 96.6198 41.1136C97.7998 41.7536 97.8531 43.4636 96.7131 44.1702C96.0765 44.5636 95.3598 44.6302 94.6331 44.5969C94.0998 44.5736 93.5798 44.4736 93.1131 44.1902C92.4865 43.8102 92.1898 43.2569 92.2398 42.5236C92.2865 41.8269 92.6598 41.3602 93.2698 41.0636C93.7831 40.8136 94.3365 40.7636 94.8865 40.7436L94.8898 40.7402ZM94.7298 44.1936C95.3665 44.1936 95.8331 44.1336 96.2698 43.9136C96.8165 43.6369 97.1098 43.2036 97.0731 42.5736C97.0365 41.9736 96.6931 41.6002 96.1631 41.3869C95.5831 41.1502 94.9731 41.1336 94.3598 41.2002C93.9531 41.2469 93.5665 41.3469 93.2298 41.5936C92.5665 42.0769 92.4865 43.0202 93.0698 43.5936C93.5731 44.0902 94.2198 44.1802 94.7331 44.1969L94.7298 44.1936Z" fill="#346DB2"/>
<path d="M160.6 40.7402C161.15 40.7602 161.667 40.8036 162.153 41.0202C162.85 41.3269 163.233 41.8569 163.247 42.6302C163.26 43.4136 162.92 43.9902 162.2 44.2936C161.14 44.7369 160.06 44.7402 159.01 44.2736C158.317 43.9669 157.947 43.4036 157.963 42.6302C157.98 41.8702 158.37 41.3502 159.05 41.0402C159.55 40.8102 160.087 40.7636 160.6 40.7402ZM160.61 44.1936C161.163 44.1936 161.703 44.1169 162.177 43.8036C163.07 43.2136 163.027 41.9369 162.063 41.4736C161.12 41.0169 160.133 41.0369 159.177 41.4569C158.68 41.6769 158.417 42.0969 158.413 42.6536C158.407 43.2036 158.673 43.5902 159.133 43.8536C159.59 44.1169 160.09 44.1936 160.61 44.1902V44.1936Z" fill="#346DB2"/>
<path d="M157.147 42.2068C156.99 42.2535 156.85 42.2368 156.7 42.2235C156.467 41.6668 156.003 41.4035 155.45 41.2668C154.727 41.0935 154.007 41.1101 153.307 41.3835C152.763 41.6001 152.427 41.9901 152.393 42.5968C152.36 43.2235 152.673 43.6435 153.22 43.8868C154.067 44.2668 154.943 44.2901 155.82 44.0035C156.233 43.8668 156.557 43.6001 156.687 43.1601C156.843 43.1435 156.983 43.1335 157.147 43.1701C157.057 43.6235 156.82 43.9635 156.433 44.1968C155.797 44.5801 155.093 44.6235 154.377 44.5901C153.843 44.5668 153.323 44.4835 152.847 44.2201C152.23 43.8801 151.947 43.3568 151.947 42.6535C151.947 41.9568 152.253 41.4435 152.853 41.1201C153.557 40.7401 154.323 40.6968 155.107 40.7768C155.76 40.8435 156.35 41.0435 156.807 41.5435C156.98 41.7335 157.097 41.9468 157.143 42.2068H157.147Z" fill="#346DB2"/>
<path d="M87 40.8105C88.1133 40.8338 89.2 40.7438 90.28 40.8638C91.2 40.9672 91.66 41.9472 91.1967 42.7572C90.9333 43.2172 90.4767 43.3238 89.9933 43.3305C89.25 43.3438 88.5033 43.3338 87.7567 43.3338C87.66 43.3338 87.5633 43.3338 87.4333 43.3338V44.5305C87.2733 44.5672 87.1433 44.5638 87 44.5372V40.8138V40.8105ZM87.4333 42.9438C88.1733 42.9438 88.89 42.9438 89.6067 42.9438C89.85 42.9438 90.09 42.9438 90.3267 42.8838C90.6067 42.8105 90.8033 42.6605 90.87 42.3572C91.0233 41.6738 90.6567 41.2305 89.9 41.2238C89.1367 41.2138 88.3733 41.2238 87.6133 41.2238C87.5533 41.2238 87.4867 41.2072 87.4333 41.2738V42.9472V42.9438Z" fill="#346DB2"/>
<path d="M148.433 44.5406H147.956C146.843 43.5206 145.706 42.4806 144.523 41.3973V44.524C144.37 44.574 144.246 44.554 144.106 44.544V40.8373C144.25 40.7906 144.393 40.8206 144.563 40.814C145.693 41.8506 146.836 42.8973 148.016 43.9806V40.8706C148.17 40.7873 148.296 40.8073 148.433 40.8406V44.5406Z" fill="#346DB2"/>
<path d="M119.964 40.8267C119.964 41.6334 119.997 42.4234 119.954 43.2067C119.917 43.8634 119.474 44.2534 118.87 44.44C118.104 44.6767 117.327 44.6734 116.564 44.43C115.834 44.2 115.49 43.7 115.49 42.94C115.49 42.2567 115.49 41.5767 115.49 40.8934C115.49 40.8767 115.5 40.86 115.51 40.8367C115.637 40.7834 115.767 40.81 115.917 40.8334V42.6434C115.917 43.6167 116.214 43.9767 117.184 44.1467C117.72 44.24 118.257 44.22 118.774 44.0167C119.297 43.81 119.53 43.4634 119.53 42.9C119.53 42.29 119.53 41.68 119.53 41.07C119.53 40.9934 119.54 40.9134 119.544 40.8367C119.684 40.7934 119.807 40.8067 119.96 40.8267H119.964Z" fill="#346DB2"/>
<path d="M108.667 40.834C108.71 40.9573 108.69 41.0707 108.68 41.2173H106.534V44.524C106.374 44.574 106.24 44.554 106.08 44.5473V41.2473H103.937C103.87 41.1007 103.914 40.9773 103.894 40.8373H108.667V40.834Z" fill="#346DB2"/>
<path d="M138.323 44.5334V41.2334H136.21C136.143 41.0934 136.17 40.9701 136.183 40.8301H140.93C140.973 40.9501 140.95 41.0701 140.943 41.2234H138.797V44.5334C138.63 44.5634 138.493 44.5634 138.327 44.5334H138.323Z" fill="#346DB2"/>
<path d="M121.617 44.5342V40.8442C121.757 40.7976 121.887 40.8076 122.053 40.8409V44.1276H125.36C125.43 44.2676 125.39 44.3909 125.397 44.5342H121.617Z" fill="#346DB2"/>
<path d="M126.407 40.8303C126.553 40.8036 126.673 40.7969 126.823 40.8369V44.1303H130.16V44.5369H126.41V40.8303H126.407Z" fill="#346DB2"/>
<path d="M142.343 44.5433C142.197 44.55 142.073 44.57 141.937 44.5266V40.8466C142.063 40.7766 142.197 40.8333 142.343 40.8066V44.5433Z" fill="#346DB2"/>
<path d="M150.744 43.7909V44.5342H150.2V43.8042C150.37 43.7542 150.547 43.7742 150.744 43.7909Z" fill="#346DB2"/>
</g>
<defs>
<clipPath id="clip0_33_1980">
<rect width="100" height="30.2633" fill="white" transform="translate(87 15)"/>
</clipPath>
</defs>
</svg>
