<svg width="132" height="44" viewBox="0 0 132 44" fill="none" xmlns="http://www.w3.org/2000/svg">
<g clip-path="url(#clip0_514_7163)">
<path d="M102.14 37.2631V32.0664C103.567 32.9564 104.93 33.8097 106.303 34.6664C106.253 34.7731 106.163 34.7997 106.093 34.8431C104.87 35.5931 103.647 36.3397 102.423 37.0897C102.343 37.1397 102.24 37.1631 102.197 37.2631H102.143H102.14Z" fill="#346DB2"/>
<path d="M25.9634 24.1133C26.27 24.1933 26.5734 24.26 26.8634 24.38C27.8367 24.7933 28.2034 25.4367 28.2267 26.57C28.2334 26.8633 28.1867 27.16 28.11 27.4467C27.8834 28.3267 27.2534 28.7733 26.43 29.0133C25.82 29.19 25.1967 29.2533 24.5667 29.2533C21.5734 29.26 18.58 29.2533 15.5867 29.2533H15.4134V19.6867C15.5034 19.6333 15.6034 19.66 15.7 19.66C18.4234 19.66 21.1467 19.6533 23.87 19.66C24.6434 19.66 25.4134 19.7333 26.1167 20.1067C27.38 20.7767 27.6534 22.6967 26.6267 23.68C26.4367 23.8633 26.21 23.9867 25.9667 24.1L25.9634 24.1133ZM17.3667 27.55C17.4167 27.5567 17.45 27.5633 17.4867 27.5633C19.7967 27.5633 22.1067 27.5667 24.4167 27.5633C24.8034 27.5633 25.19 27.5067 25.5434 27.34C25.9734 27.14 26.16 26.7867 26.1434 26.32C26.13 25.8733 25.89 25.5867 25.4934 25.42C25.2167 25.3033 24.92 25.2633 24.6234 25.2633C22.2334 25.2533 19.84 25.2533 17.45 25.25C17.4267 25.25 17.4 25.26 17.3667 25.27V27.5533V27.55ZM17.37 23.5333C17.4434 23.54 17.5034 23.5467 17.5667 23.55C19.6234 23.55 21.68 23.55 23.7334 23.55C23.95 23.55 24.1634 23.5233 24.3734 23.47C24.88 23.3367 25.1134 23.0467 25.14 22.5067C25.1634 22.0533 24.91 21.6867 24.46 21.5233C24.1434 21.4067 23.8134 21.38 23.48 21.38C21.54 21.38 19.6 21.38 17.6634 21.38C17.5667 21.38 17.4667 21.35 17.37 21.4133V23.5367V23.5333Z" fill="#292929"/>
<path d="M81.68 19.6899V21.4565H72.4467V23.5432H81.4767V25.2899H72.4467V27.4432H81.79V29.2399H70.45V19.6865H81.6834L81.68 19.6899Z" fill="#292929"/>
<path d="M57.6834 10.23H55.4434C55.2 9.32331 54.4434 9.10331 53.6667 8.99664C51.88 8.74997 50.0867 8.74664 48.3 9.03331C48.05 9.07331 47.8134 9.15664 47.5934 9.28331C47.33 9.43664 47.19 9.65664 47.21 9.96997C47.23 10.2633 47.42 10.4166 47.6667 10.5133C48.2767 10.7466 48.9267 10.7966 49.5667 10.8633C51.2367 11.0333 52.9167 11.0866 54.5834 11.3C55.3067 11.3933 56.0067 11.5666 56.68 11.8633C58.46 12.6566 58.2367 14.97 57.1 15.83C56.3834 16.3733 55.5634 16.65 54.6967 16.7766C52.44 17.1033 50.1834 17.0766 47.9434 16.6266C46.99 16.4366 46.1367 16.0333 45.5267 15.2266C45.18 14.7666 44.9834 14.2466 44.92 13.6533H47.0967C47.0967 13.6533 47.13 13.6833 47.1334 13.7066C47.2767 14.4766 47.83 14.79 48.5167 14.9566C49.29 15.1466 50.08 15.1866 50.87 15.2066C52.12 15.24 53.3667 15.2533 54.6034 15.01C54.9034 14.95 55.1967 14.86 55.4567 14.69C55.7367 14.51 55.8834 14.2566 55.8567 13.92C55.83 13.5966 55.6334 13.4 55.35 13.28C54.77 13.0333 54.1534 12.9766 53.5367 12.91C52 12.7433 50.4534 12.72 48.92 12.5333C48.1267 12.4366 47.34 12.2933 46.5967 11.9833C45.5867 11.5666 45.1067 10.8833 45.1267 9.88997C45.1434 9.16331 45.53 8.63997 46.0934 8.23331C46.7767 7.73997 47.5634 7.48331 48.38 7.33664C50.4067 6.97331 52.4367 6.94331 54.45 7.41997C55.35 7.63331 56.1834 8.00331 56.85 8.67997C57.27 9.10997 57.54 9.59331 57.6834 10.23Z" fill="#346DB2"/>
<path d="M43.2467 11.8C43.2467 14.03 42.1167 15.59 40.0634 16.36C39.0267 16.7466 37.95 16.9066 36.85 16.9566C35.4234 17.02 34.0134 16.93 32.65 16.4666C31.48 16.07 30.4434 15.4666 29.6967 14.45C28.5267 12.86 28.71 10.4333 30.09 9.02329C31.1367 7.95329 32.43 7.37662 33.89 7.16995C35.6734 6.91662 37.4534 6.92662 39.21 7.36662C40.0534 7.57662 40.83 7.93995 41.5267 8.46995C42.69 9.34995 43.2867 10.5 43.25 11.8033L43.2467 11.8ZM36.12 15.2166C36.65 15.2233 37.18 15.1866 37.7034 15.11C38.72 14.9633 39.6434 14.6166 40.4067 13.8966C41.5267 12.84 41.4634 10.9333 40.2734 9.96662C39.8 9.58329 39.27 9.30329 38.6867 9.13662C37.2434 8.72329 35.78 8.71662 34.3134 8.95329C33.5 9.08329 32.7234 9.33329 32.06 9.84329C30.7267 10.8733 30.6034 12.8166 31.8 13.8866C32.1434 14.1933 32.5267 14.44 32.9434 14.6333C33.9534 15.1033 35.0267 15.2033 36.12 15.2133V15.2166Z" fill="#346DB2"/>
<path d="M104.7 22.2031V29.2464H102.747V19.6831H104.893C107.503 22.0164 110.143 24.3764 112.813 26.7631V19.6898H114.72V29.2498H112.647C110.03 26.9298 107.393 24.5931 104.7 22.2064V22.2031Z" fill="#292929"/>
<path d="M17.4034 14.2098V16.8132H15.4134V7.25316C15.4634 7.24983 15.5067 7.24316 15.55 7.24316C18.3 7.24316 21.05 7.24316 23.8 7.25316C24.35 7.25316 24.89 7.36316 25.4134 7.5265C26.4067 7.83316 27.0267 8.48983 27.2767 9.49983C27.47 10.2798 27.4867 11.0665 27.3034 11.8465C27.0334 12.9998 26.2667 13.6732 25.15 13.9865C24.54 14.1565 23.9167 14.2132 23.2834 14.2132C21.4334 14.2132 19.58 14.2132 17.73 14.2132H17.4L17.4034 14.2098ZM17.4167 8.9765V12.3798C17.4834 12.3832 17.53 12.3898 17.5734 12.3898C19.3967 12.3898 21.22 12.3932 23.0434 12.3898C23.3467 12.3898 23.6534 12.3565 23.9534 12.3132C24.81 12.1932 25.27 11.7998 25.3634 11.1098C25.4034 10.8165 25.39 10.5198 25.3534 10.2265C25.29 9.7265 25.0034 9.41983 24.5567 9.23316C24.1434 9.06316 23.71 8.98316 23.27 8.97983C21.3667 8.9665 19.4634 8.96983 17.56 8.9665C17.5167 8.9665 17.4734 8.97316 17.42 8.9765H17.4167Z" fill="#346DB2"/>
<path d="M40.8367 19.6831H42.8534V19.9564C42.8534 21.6798 42.86 23.4031 42.8534 25.1264C42.85 26.0764 42.61 26.9531 41.9634 27.6831C41.3334 28.3898 40.5267 28.8064 39.62 29.0298C37.5234 29.5498 35.4234 29.5798 33.3567 28.8931C32.15 28.4898 31.2167 27.7398 30.74 26.5131C30.5534 26.0331 30.46 25.5298 30.4567 25.0164C30.45 23.2831 30.4567 21.5498 30.4567 19.8198C30.4567 19.7764 30.4634 19.7331 30.47 19.6831H32.4434C32.5134 19.7731 32.48 19.8764 32.48 19.9698C32.48 21.5864 32.5034 23.2031 32.4734 24.8164C32.4534 25.9998 32.9734 26.8198 34.0567 27.2098C35.8567 27.8598 37.6834 27.8998 39.4634 27.1298C40.3934 26.7264 40.86 25.9798 40.8467 24.9331C40.8267 23.2898 40.84 21.6464 40.84 20.0031C40.84 19.9064 40.84 19.8064 40.84 19.6831H40.8367Z" fill="#292929"/>
<path d="M95.5001 19.6831V21.4664H90.1467V29.2431H88.1167V21.4831H82.7267V19.6831H95.5001Z" fill="#292929"/>
<path d="M58.8934 9.04017V7.25684H71.6567V9.03017H66.3234V16.8168H64.2834V9.04017H58.8934Z" fill="#346DB2"/>
<path d="M46.1334 29.2432V19.6865H48.1234V27.4465H56.19V29.2432H46.1334Z" fill="#292929"/>
<path d="M68.2134 27.4535V29.2435H58.1367V19.6802H60.1334V27.4535H68.2134Z" fill="#292929"/>
<path d="M97.2967 19.6768H99.32V29.2468H97.2967V19.6768Z" fill="#292929"/>
<path d="M110.837 34.6897C109.43 35.5497 108.063 36.383 106.663 37.2363V32.083C108.07 32.963 109.433 33.813 110.837 34.6897Z" fill="#346DB2"/>
<path d="M111.157 32.0801C112.57 32.9634 113.933 33.8134 115.333 34.6867C113.93 35.5434 112.56 36.3801 111.157 37.2401V32.0801Z" fill="#346DB2"/>
<path d="M41.7834 34.5603C41.8701 34.587 41.9301 34.607 41.9901 34.6237C42.3934 34.747 42.6234 35.0236 42.6467 35.4136C42.6734 35.9136 42.4901 36.237 42.0801 36.4103C41.8101 36.5237 41.5234 36.5503 41.2367 36.5537C40.2034 36.5603 39.1734 36.5537 38.1401 36.5537C38.1067 36.5537 38.0701 36.547 38.0167 36.5403V32.8436C38.1101 32.7936 38.2001 32.8103 38.2901 32.8137C39.2767 32.827 40.2634 32.7736 41.2501 32.8436C41.9801 32.897 42.3467 33.4037 42.1634 34.077C42.1067 34.2837 41.9801 34.4336 41.7834 34.5603ZM38.4434 36.1336C39.4701 36.1336 40.4667 36.1336 41.4634 36.1336C41.5501 36.1336 41.6401 36.1103 41.7267 36.087C42.0467 35.9937 42.1967 35.7836 42.1901 35.4503C42.1834 35.167 42.0067 34.967 41.6934 34.9003C41.5467 34.8703 41.3901 34.8503 41.2401 34.8503C40.3867 34.847 39.5334 34.8503 38.6801 34.8503C38.6034 34.8503 38.5167 34.827 38.4401 34.8903V36.137L38.4434 36.1336ZM38.4401 34.4503C39.3667 34.4503 40.2634 34.457 41.1601 34.447C41.4701 34.4436 41.6734 34.257 41.7267 34.0003C41.7867 33.7036 41.6901 33.4536 41.4534 33.3303C41.3067 33.2536 41.1501 33.2236 40.9867 33.2236C40.1867 33.2236 39.3901 33.2236 38.5901 33.2236C38.5367 33.2236 38.4801 33.2103 38.4434 33.2636V34.4503H38.4401Z" fill="#346DB2"/>
<path d="M93.2934 33.4932V36.5165C93.1601 36.5732 93.0301 36.5532 92.8867 36.5332V32.8365C93.0701 32.7865 93.25 32.8132 93.4467 32.8165C94.1434 33.9032 94.8401 34.9965 95.5634 36.1232C96.2867 35.0032 96.9867 33.9198 97.6867 32.8332C97.8767 32.7965 98.0601 32.7965 98.2567 32.8332V36.5232C98.1234 36.5698 98.0001 36.5532 97.8434 36.5365V33.5198C97.8234 33.5132 97.8034 33.5098 97.7834 33.5032C97.1267 34.5132 96.4701 35.5265 95.8067 36.5432H95.3034C94.6534 35.5265 93.9967 34.4998 93.3434 33.4765C93.3267 33.4832 93.3101 33.4898 93.2934 33.4965V33.4932Z" fill="#346DB2"/>
<path d="M59.6734 32.8232H63.86C63.91 32.9499 63.8834 33.0699 63.88 33.2232H60.0967V34.4532H63.78C63.8034 34.6032 63.8134 34.7232 63.77 34.8666H60.0934V36.1232H63.9C63.9434 36.2766 63.9267 36.3966 63.9167 36.5366H59.6734V32.8232Z" fill="#346DB2"/>
<path d="M31.5434 33.8896H31.0667C30.7634 33.3396 30.22 33.2596 29.6667 33.1962C29.12 33.1329 28.5734 33.1529 28.0334 33.2696C27.9134 33.2962 27.79 33.3396 27.68 33.3962C27.51 33.4829 27.3834 33.6162 27.4 33.8162C27.4167 34.0062 27.56 34.1129 27.7267 34.1729C28.0667 34.2996 28.4267 34.3229 28.7834 34.3496C29.4167 34.3996 30.0567 34.4029 30.68 34.5629C30.8267 34.5996 30.9734 34.6496 31.11 34.7129C31.4267 34.8596 31.6267 35.0962 31.6334 35.4596C31.6367 35.8362 31.46 36.1096 31.13 36.2862C30.6634 36.5362 30.1534 36.5729 29.64 36.5929C28.9567 36.6196 28.2734 36.5996 27.6267 36.3362C27.1967 36.1596 26.9034 35.8629 26.8234 35.3696C26.9834 35.3262 27.1234 35.3362 27.2767 35.3562C27.4034 35.8362 27.7734 36.0162 28.2067 36.0962C28.9734 36.2362 29.7434 36.2429 30.5067 36.0829C30.62 36.0596 30.7334 36.0196 30.8334 35.9662C31.0267 35.8696 31.1667 35.7296 31.16 35.4862C31.1534 35.2562 31.0134 35.1262 30.8234 35.0396C30.3467 34.8229 29.8267 34.8229 29.32 34.7829C28.82 34.7429 28.3167 34.7296 27.8234 34.6162C27.6667 34.5796 27.51 34.5296 27.37 34.4562C26.8667 34.2062 26.79 33.6529 27.1867 33.2529C27.3767 33.0629 27.6167 32.9596 27.87 32.8962C28.7134 32.6962 29.5634 32.6862 30.4 32.9096C30.91 33.0462 31.34 33.3029 31.5367 33.8829L31.5434 33.8896Z" fill="#346DB2"/>
<path d="M23.2234 32.7402C23.8267 32.7636 24.4134 32.8236 24.9534 33.1136C26.1334 33.7536 26.1867 35.4636 25.0467 36.1702C24.41 36.5636 23.6934 36.6302 22.9667 36.5969C22.4334 36.5736 21.9134 36.4736 21.4467 36.1902C20.82 35.8102 20.5234 35.2569 20.5734 34.5236C20.62 33.8269 20.9934 33.3602 21.6034 33.0636C22.1167 32.8136 22.67 32.7636 23.22 32.7436L23.2234 32.7402ZM23.0634 36.1936C23.7 36.1936 24.1667 36.1336 24.6034 35.9136C25.15 35.6369 25.4434 35.2036 25.4067 34.5736C25.37 33.9736 25.0267 33.6002 24.4967 33.3869C23.9167 33.1502 23.3067 33.1336 22.6934 33.2002C22.2867 33.2469 21.9 33.3469 21.5634 33.5936C20.9 34.0769 20.82 35.0202 21.4034 35.5936C21.9067 36.0902 22.5534 36.1802 23.0667 36.1969L23.0634 36.1936Z" fill="#346DB2"/>
<path d="M88.9334 32.7402C89.4834 32.7602 90 32.8036 90.4867 33.0202C91.1834 33.3269 91.5667 33.8569 91.58 34.6302C91.5934 35.4136 91.2534 35.9902 90.5334 36.2936C89.4734 36.7369 88.3934 36.7402 87.3434 36.2736C86.65 35.9669 86.28 35.4036 86.2967 34.6302C86.3134 33.8702 86.7034 33.3502 87.3834 33.0402C87.8834 32.8102 88.42 32.7636 88.9334 32.7402ZM88.9434 36.1936C89.4967 36.1936 90.0367 36.1169 90.51 35.8036C91.4034 35.2136 91.36 33.9369 90.3967 33.4736C89.4534 33.0169 88.4667 33.0369 87.51 33.4569C87.0134 33.6769 86.75 34.0969 86.7467 34.6536C86.74 35.2036 87.0067 35.5902 87.4667 35.8536C87.9234 36.1169 88.4234 36.1936 88.9434 36.1902V36.1936Z" fill="#346DB2"/>
<path d="M85.48 34.2068C85.3234 34.2535 85.1834 34.2368 85.0334 34.2235C84.8 33.6668 84.3367 33.4035 83.7834 33.2668C83.06 33.0935 82.34 33.1101 81.64 33.3835C81.0967 33.6001 80.76 33.9901 80.7267 34.5968C80.6934 35.2235 81.0067 35.6435 81.5534 35.8868C82.4 36.2668 83.2767 36.2901 84.1534 36.0035C84.5667 35.8668 84.89 35.6001 85.02 35.1601C85.1767 35.1435 85.3167 35.1335 85.48 35.1701C85.39 35.6235 85.1534 35.9635 84.7667 36.1968C84.13 36.5801 83.4267 36.6235 82.71 36.5901C82.1767 36.5668 81.6567 36.4835 81.18 36.2201C80.5634 35.8801 80.28 35.3568 80.28 34.6535C80.28 33.9568 80.5867 33.4435 81.1867 33.1201C81.89 32.7401 82.6567 32.6968 83.44 32.7768C84.0934 32.8435 84.6834 33.0435 85.14 33.5435C85.3134 33.7335 85.43 33.9468 85.4767 34.2068H85.48Z" fill="#346DB2"/>
<path d="M15.3334 32.8095C16.4467 32.8329 17.5334 32.7429 18.6134 32.8629C19.5334 32.9662 19.9934 33.9462 19.53 34.7562C19.2667 35.2162 18.81 35.3229 18.3267 35.3295C17.5834 35.3429 16.8367 35.3329 16.09 35.3329C15.9934 35.3329 15.8967 35.3329 15.7667 35.3329V36.5295C15.6067 36.5662 15.4767 36.5629 15.3334 36.5362V32.8129V32.8095ZM15.7667 34.9429C16.5067 34.9429 17.2234 34.9429 17.94 34.9429C18.1834 34.9429 18.4234 34.9429 18.66 34.8829C18.94 34.8095 19.1367 34.6595 19.2034 34.3562C19.3567 33.6729 18.99 33.2295 18.2334 33.2229C17.47 33.2129 16.7067 33.2229 15.9467 33.2229C15.8867 33.2229 15.82 33.2062 15.7667 33.2729V34.9462V34.9429Z" fill="#346DB2"/>
<path d="M76.7667 36.5397H76.29C75.1767 35.5197 74.04 34.4797 72.8567 33.3963V36.523C72.7034 36.573 72.58 36.553 72.44 36.543V32.8363C72.5834 32.7897 72.7267 32.8197 72.8967 32.813C74.0267 33.8497 75.17 34.8963 76.35 35.9797V32.8697C76.5034 32.7863 76.63 32.8063 76.7667 32.8397V36.5397Z" fill="#346DB2"/>
<path d="M48.2967 32.8267C48.2967 33.6334 48.33 34.4234 48.2867 35.2067C48.25 35.8634 47.8067 36.2534 47.2034 36.44C46.4367 36.6767 45.66 36.6734 44.8967 36.43C44.1667 36.2 43.8234 35.7 43.8234 34.94C43.8234 34.2567 43.8234 33.5767 43.8234 32.8934C43.8234 32.8767 43.8334 32.86 43.8434 32.8367C43.97 32.7834 44.1 32.81 44.25 32.8334V34.6434C44.25 35.6167 44.5467 35.9767 45.5167 36.1467C46.0534 36.24 46.59 36.22 47.1067 36.0167C47.63 35.81 47.8634 35.4634 47.8634 34.9C47.8634 34.29 47.8634 33.68 47.8634 33.07C47.8634 32.9934 47.8734 32.9134 47.8767 32.8367C48.0167 32.7934 48.14 32.8067 48.2934 32.8267H48.2967Z" fill="#346DB2"/>
<path d="M37 32.833C37.0434 32.9563 37.0234 33.0697 37.0134 33.2163H34.8667V36.523C34.7067 36.573 34.5734 36.553 34.4134 36.5463V33.2463H32.27C32.2034 33.0997 32.2467 32.9763 32.2267 32.8363H37V32.833Z" fill="#346DB2"/>
<path d="M66.6567 36.5334V33.2334H64.5434C64.4767 33.0934 64.5034 32.9701 64.5167 32.8301H69.2634C69.3067 32.9501 69.2834 33.0701 69.2767 33.2234H67.13V36.5334C66.9634 36.5634 66.8267 36.5634 66.66 36.5334H66.6567Z" fill="#346DB2"/>
<path d="M49.95 36.5332V32.8432C50.09 32.7966 50.22 32.8066 50.3867 32.8399V36.1266H53.6934C53.7634 36.2666 53.7234 36.3899 53.73 36.5332H49.95Z" fill="#346DB2"/>
<path d="M54.7401 32.8303C54.8867 32.8036 55.0067 32.7969 55.1567 32.8369V36.1303H58.4934V36.5369H54.7434V32.8303H54.7401Z" fill="#346DB2"/>
<path d="M70.6767 36.5433C70.5301 36.55 70.4067 36.57 70.2701 36.5266V32.8466C70.3967 32.7766 70.5301 32.8333 70.6767 32.8066V36.5433Z" fill="#346DB2"/>
<path d="M79.0767 35.7899V36.5332H78.5334V35.8032C78.7034 35.7532 78.88 35.7732 79.0767 35.7899Z" fill="#346DB2"/>
</g>
<defs>
<clipPath id="clip0_514_7163">
<rect width="100" height="30.2633" fill="white" transform="translate(15.3334 7)"/>
</clipPath>
</defs>
</svg>
